<svg width="32" height="32" viewBox="0 0 32 32" fill="none" xmlns="http://www.w3.org/2000/svg">
<path d="M16 29.3335C17.4667 29.3335 18.6667 28.1335 18.6667 26.6668H13.3333C13.3333 28.1335 14.5333 29.3335 16 29.3335ZM24 21.3335V14.6668C24 10.5735 21.8267 7.14683 18 6.24016V5.3335C18 4.22683 17.1067 3.3335 16 3.3335C14.8933 3.3335 14 4.22683 14 5.3335V6.24016C10.1867 7.14683 8.00001 10.5602 8.00001 14.6668V21.3335L5.33334 24.0002V25.3335H26.6667V24.0002L24 21.3335ZM21.3333 22.6668H10.6667V14.6668C10.6667 11.3602 12.68 8.66683 16 8.66683C19.32 8.66683 21.3333 11.3602 21.3333 14.6668V22.6668Z" fill="black"/>
</svg>
