<svg width="32" height="32" viewBox="0 0 32 32" fill="none" xmlns="http://www.w3.org/2000/svg">
<path d="M25.3334 5.33317H22.6667V3.99984C22.6667 3.64622 22.5262 3.30708 22.2762 3.05703C22.0261 2.80698 21.687 2.6665 21.3334 2.6665C20.9797 2.6665 20.6406 2.80698 20.3905 3.05703C20.1405 3.30708 20 3.64622 20 3.99984V5.33317H12V3.99984C12 3.64622 11.8595 3.30708 11.6095 3.05703C11.3594 2.80698 11.0203 2.6665 10.6667 2.6665C10.3131 2.6665 9.97393 2.80698 9.72388 3.05703C9.47383 3.30708 9.33335 3.64622 9.33335 3.99984V5.33317H6.66669C5.60582 5.33317 4.58841 5.7546 3.83826 6.50474C3.08811 7.25489 2.66669 8.27231 2.66669 9.33317V25.3332C2.66669 26.394 3.08811 27.4115 3.83826 28.1616C4.58841 28.9117 5.60582 29.3332 6.66669 29.3332H25.3334C26.3942 29.3332 27.4116 28.9117 28.1618 28.1616C28.9119 27.4115 29.3334 26.394 29.3334 25.3332V9.33317C29.3334 8.27231 28.9119 7.25489 28.1618 6.50474C27.4116 5.7546 26.3942 5.33317 25.3334 5.33317ZM26.6667 25.3332C26.6667 25.6868 26.5262 26.0259 26.2762 26.276C26.0261 26.526 25.687 26.6665 25.3334 26.6665H6.66669C6.31307 26.6665 5.97393 26.526 5.72388 26.276C5.47383 26.0259 5.33335 25.6868 5.33335 25.3332V15.9998H26.6667V25.3332ZM26.6667 13.3332H5.33335V9.33317C5.33335 8.97955 5.47383 8.64041 5.72388 8.39036C5.97393 8.14031 6.31307 7.99984 6.66669 7.99984H9.33335V9.33317C9.33335 9.68679 9.47383 10.0259 9.72388 10.276C9.97393 10.526 10.3131 10.6665 10.6667 10.6665C11.0203 10.6665 11.3594 10.526 11.6095 10.276C11.8595 10.0259 12 9.68679 12 9.33317V7.99984H20V9.33317C20 9.68679 20.1405 10.0259 20.3905 10.276C20.6406 10.526 20.9797 10.6665 21.3334 10.6665C21.687 10.6665 22.0261 10.526 22.2762 10.276C22.5262 10.0259 22.6667 9.68679 22.6667 9.33317V7.99984H25.3334C25.687 7.99984 26.0261 8.14031 26.2762 8.39036C26.5262 8.64041 26.6667 8.97955 26.6667 9.33317V13.3332Z" fill="#0E0E0E"/>
</svg>
