<svg width="32" height="32" viewBox="0 0 32 32" fill="none" xmlns="http://www.w3.org/2000/svg">
<path d="M4.80001 4.7998C4.37567 4.7998 3.9687 4.96838 3.66864 5.26843C3.36858 5.56849 3.20001 5.97546 3.20001 6.3998C3.20001 6.82415 3.36858 7.23112 3.66864 7.53118C3.9687 7.83123 4.37567 7.9998 4.80001 7.9998H22.4C22.8244 7.9998 23.2313 7.83123 23.5314 7.53118C23.8314 7.23112 24 6.82415 24 6.3998C24 5.97546 23.8314 5.56849 23.5314 5.26843C23.2313 4.96838 22.8244 4.7998 22.4 4.7998H4.80001Z" fill="black"/>
<path d="M4.80001 11.1997C4.37567 11.1997 3.9687 11.3683 3.66864 11.6683C3.36858 11.9684 3.20001 12.3754 3.20001 12.7997C3.20001 13.2241 3.36858 13.631 3.66864 13.9311C3.9687 14.2311 4.37567 14.3997 4.80001 14.3997H16C16.4244 14.3997 16.8313 14.2311 17.1314 13.9311C17.4314 13.631 17.6 13.2241 17.6 12.7997C17.6 12.3754 17.4314 11.9684 17.1314 11.6683C16.8313 11.3683 16.4244 11.1997 16 11.1997H4.80001Z" fill="black"/>
<path d="M4.80001 17.5996C4.37567 17.5996 3.9687 17.7682 3.66864 18.0682C3.36858 18.3683 3.20001 18.7753 3.20001 19.1996C3.20001 19.624 3.36858 20.0309 3.66864 20.331C3.9687 20.631 4.37567 20.7996 4.80001 20.7996H11.2C11.6244 20.7996 12.0313 20.631 12.3314 20.331C12.6314 20.0309 12.8 19.624 12.8 19.1996C12.8 18.7753 12.6314 18.3683 12.3314 18.0682C12.0313 17.7682 11.6244 17.5996 11.2 17.5996H4.80001Z" fill="black"/>
<path d="M24 12.7997C24 12.3754 23.8314 11.9684 23.5314 11.6683C23.2313 11.3683 22.8244 11.1997 22.4 11.1997C21.9757 11.1997 21.5687 11.3683 21.2687 11.6683C20.9686 11.9684 20.8 12.3754 20.8 12.7997V21.7373L18.7312 19.6685C18.4295 19.3771 18.0253 19.2158 17.6058 19.2194C17.1863 19.2231 16.785 19.3913 16.4883 19.688C16.1917 19.9846 16.0234 20.386 16.0197 20.8055C16.0161 21.225 16.1774 21.6291 16.4688 21.9309L21.2688 26.7309C21.5689 27.0309 21.9758 27.1994 22.4 27.1994C22.8243 27.1994 23.2312 27.0309 23.5312 26.7309L28.3312 21.9309C28.6227 21.6291 28.7839 21.225 28.7803 20.8055C28.7767 20.386 28.6084 19.9846 28.3117 19.688C28.0151 19.3913 27.6138 19.2231 27.1943 19.2194C26.7747 19.2158 26.3706 19.3771 26.0688 19.6685L24 21.7373V12.7997Z" fill="black"/>
</svg>
