<svg width="25" height="15" viewBox="0 0 25 15" fill="none" xmlns="http://www.w3.org/2000/svg">
<path d="M3.83115 0.665249L12.5117 9.50424L21.1922 0.665249C21.3993 0.45434 21.6452 0.287038 21.9158 0.172894C22.1864 0.0587505 22.4765 2.2223e-09 22.7694 0C23.0623 -2.22229e-09 23.3524 0.0587505 23.623 0.172894C23.8937 0.287038 24.1396 0.45434 24.3467 0.665249C24.5538 0.876159 24.7181 1.12655 24.8302 1.40211C24.9423 1.67768 25 1.97303 25 2.2713C25 2.56957 24.9423 2.86492 24.8302 3.14049C24.7181 3.41606 24.5538 3.66645 24.3467 3.87736L14.0777 14.3338C13.8708 14.545 13.6249 14.7125 13.3543 14.8268C13.0836 14.9412 12.7935 15 12.5005 15C12.2075 15 11.9173 14.9412 11.6467 14.8268C11.376 14.7125 11.1302 14.545 10.9232 14.3338L0.654268 3.87736C0.446868 3.6666 0.282324 3.41626 0.170056 3.14068C0.0577874 2.86509 0 2.56966 0 2.2713C0 1.97294 0.0577874 1.67752 0.170056 1.40193C0.282324 1.12634 0.446868 0.876004 0.654268 0.665249C1.52679 -0.200424 2.95863 -0.223205 3.83115 0.665249Z" fill="#0E0E0E"/>
</svg>
