<svg width="32" height="32" viewBox="0 0 32 32" fill="none" xmlns="http://www.w3.org/2000/svg">
<path d="M28.3427 14.6158C28.9747 15.4425 28.9747 16.5585 28.3427 17.3838C26.352 19.9825 21.576 25.3332 16 25.3332C10.424 25.3332 5.64799 19.9825 3.65733 17.3838C3.34984 16.988 3.18292 16.5011 3.18292 15.9998C3.18292 15.4986 3.34984 15.0117 3.65733 14.6158C5.64799 12.0172 10.424 6.6665 16 6.6665C21.576 6.6665 26.352 12.0172 28.3427 14.6158V14.6158Z" stroke="black" stroke-width="2" stroke-linecap="round" stroke-linejoin="round"/>
<path d="M16 20C18.2091 20 20 18.2091 20 16C20 13.7909 18.2091 12 16 12C13.7909 12 12 13.7909 12 16C12 18.2091 13.7909 20 16 20Z" stroke="black" stroke-width="2" stroke-linecap="round" stroke-linejoin="round"/>
</svg>
