<svg width="30" height="30" viewBox="0 0 30 30" fill="none" xmlns="http://www.w3.org/2000/svg">
<g clip-path="url(#clip0)">
<path d="M20.8121 1.15432C19.6042 1.16675 18.3653 1.40262 17.1532 1.88645L17.0982 1.9098L17.0432 1.93815C16.2748 2.32945 15.5745 2.81895 14.9519 3.39905C11.6013 0.501124 6.26704 0.290799 2.61764 3.58082L2.58094 3.61417L2.54759 3.6492C-0.653809 6.9931 -0.578834 12.1429 1.34017 16.2119L1.35684 16.2436L1.37352 16.277C3.63362 20.4622 7.85392 24.0183 11.6999 26.9419L11.7099 26.9502L11.7182 26.9569C11.9656 27.1383 12.3911 27.5133 12.8822 27.8825C13.3734 28.2516 13.9282 28.6562 14.74 28.8113L14.9218 28.8463L15.1053 28.8313C15.9573 28.7578 16.2916 28.4433 16.8513 28.0909C17.4111 27.7385 18.0308 27.2912 18.6675 26.8018C19.9225 25.8369 21.2211 24.7248 22.0762 23.9317C22.0872 23.9214 22.1054 23.9067 22.1163 23.8967C22.118 23.8951 22.1195 23.8932 22.1213 23.8917C23.9226 22.3546 25.7068 20.5826 27.2194 18.4984C27.2199 18.4977 27.2206 18.4973 27.221 18.4967C27.2239 18.4929 27.2265 18.4889 27.2294 18.485C29.6283 15.2552 30.7919 10.9026 29.4041 6.6144L29.379 6.53767L29.3457 6.46595C27.7874 3.0971 24.4359 1.1171 20.8121 1.15432ZM20.8555 3.79262C23.4664 3.73257 25.7548 5.13057 26.8909 7.52157C27.9406 10.869 27.0332 14.2796 25.0781 16.9057L25.0731 16.9124L25.0681 16.919C23.7061 18.7985 22.0566 20.4438 20.3469 21.8988L20.3252 21.9188L20.3035 21.9388C19.5336 22.6555 18.2304 23.7719 17.0398 24.6872C16.4445 25.1448 15.8738 25.5538 15.4305 25.8329C15.2638 25.9378 15.1053 26.0093 14.9752 26.0647C14.8385 25.99 14.665 25.8848 14.4849 25.7495C14.1224 25.4771 13.7364 25.1293 13.3159 24.8189C13.3093 24.8139 13.3024 24.8089 13.2959 24.8039C9.56352 21.965 5.63212 18.518 3.74164 15.0429C2.20687 11.764 2.27384 7.83957 4.44207 5.53367C7.39022 2.91237 11.7701 3.48225 13.9546 6.1724L15.0186 7.48155L16.0475 6.14572C16.6396 5.37765 17.3461 4.79047 18.2039 4.34462C19.1029 3.9934 19.9962 3.81237 20.8555 3.79262Z" fill="black"/>
</g>
<defs>
<clipPath id="clip0">
<rect width="30" height="30" fill="white"/>
</clipPath>
</defs>
</svg>
