<svg width="63" height="56" viewBox="0 0 63 56" fill="none" xmlns="http://www.w3.org/2000/svg">
<path d="M31.5181 23.671L25.1158 12.2715C25.0495 12.1539 25.01 12.0152 25.0017 11.8707C24.9933 11.7263 25.0165 11.5817 25.0686 11.453C25.1753 11.191 25.3873 11.0251 25.6183 11.0251H28.6127V2.35656C25.7609 0.813024 22.5539 5.08598e-05 19.2741 5.08598e-05C16.6852 5.08598e-05 14.1766 0.492088 11.8066 1.46893C9.51671 2.40958 7.45294 3.76269 5.68086 5.48481C3.91605 7.19336 2.50627 9.2289 1.53143 11.4761C0.517768 13.8133 0 16.2952 0 18.8494C0 21.2589 0.49589 23.7698 1.48038 26.324C2.30443 28.4586 3.48582 30.6728 4.99536 32.9086C7.3873 36.447 10.6762 40.1372 14.76 43.8782C21.5275 50.0793 28.2293 54.3629 28.5137 54.5366L30.242 55.6364C31.0077 56.1212 31.9922 56.1212 32.7579 55.6364L34.4862 54.5366C34.7706 54.3557 41.4652 50.0793 48.2399 43.8782C52.3237 40.1372 55.6126 36.447 58.0046 32.9086C59.5141 30.6728 60.7028 28.4586 61.5195 26.324C62.504 23.7698 62.9999 21.2589 62.9999 18.8494C63.0072 16.2952 62.4894 13.8133 61.4758 11.4761C60.4983 9.23035 59.0889 7.19529 57.3264 5.48481C55.5625 3.76924 53.4829 2.4059 51.2007 1.46893C48.8341 0.493485 46.2958 -0.00580159 43.7331 5.08598e-05C40.8289 5.08598e-05 37.9819 0.637467 35.3879 1.85509L35.3877 11.0257H38.3813C38.4948 11.0254 38.6062 11.0651 38.7031 11.1402C38.8001 11.2154 38.8788 11.3232 38.9308 11.4518C38.983 11.5801 39.0064 11.7244 38.9985 11.8686C38.9906 12.0128 38.9516 12.1515 38.8858 12.2694L32.5248 23.6685C32.4677 23.7708 32.3922 23.8542 32.3047 23.9119C32.2172 23.9695 32.1201 23.9997 32.0216 24H32.0201C31.9219 23.9999 31.8252 23.97 31.7379 23.9128C31.6506 23.8556 31.5753 23.7727 31.5181 23.671Z" fill="#006CFF"/>
</svg>
