<svg width="32" height="32" viewBox="0 0 32 32" fill="none" xmlns="http://www.w3.org/2000/svg">
<path d="M24 21.5074C22.9872 21.5074 22.0736 21.901 21.3808 22.5346L11.88 16.9938C11.9536 16.693 12 16.3794 12 16.0594C12 15.7394 11.9536 15.4274 11.88 15.1266L21.28 9.64021C22.0159 10.3336 22.9888 10.7199 24 10.7202C26.2064 10.7202 28 8.92661 28 6.72021C28 4.51381 26.2064 2.72021 24 2.72021C21.7936 2.72021 20 4.51381 20 6.72021C20 7.04021 20.0464 7.35381 20.12 7.65301L10.72 13.1394C9.98362 12.4467 9.011 12.0605 8 12.0594C5.7936 12.0594 4 13.853 4 16.0594C4 18.2658 5.7936 20.0594 8 20.0594C9.01116 20.0591 9.98406 19.6728 10.72 18.9794L20.2208 24.5202C20.1508 24.8062 20.1148 25.0994 20.1136 25.3938C20.1139 26.162 20.342 26.9129 20.769 27.5515C21.196 28.1901 21.8027 28.6878 22.5125 28.9816C23.2223 29.2754 24.0033 29.3522 24.7567 29.2023C25.5101 29.0523 26.2022 28.6824 26.7454 28.1392C27.2886 27.596 27.6585 26.9039 27.8085 26.1505C27.9584 25.3971 27.8816 24.6161 27.5878 23.9063C27.294 23.1965 26.7963 22.5898 26.1577 22.1628C25.5191 21.7358 24.7682 21.5077 24 21.5074Z" fill="black"/>
</svg>
