<svg width="155" height="34" viewBox="0 0 155 34" fill="none" xmlns="http://www.w3.org/2000/svg">
<path d="M94 17.0974C94 8.20487 86.8387 1 78 1C69.1613 1 62 8.20487 62 17.0974C62 25.1318 67.851 31.7914 75.5 33V21.7507H71.4355V17.0974H75.5V13.5507C75.5 9.51667 77.8871 7.28836 81.5432 7.28836C83.2942 7.28836 85.1252 7.60252 85.1252 7.60252V11.5619H83.1071C81.12 11.5619 80.5 12.803 80.5 14.0759V17.0974H84.9374L84.2277 21.7507H80.5V33C88.149 31.7914 94 25.1318 94 17.0974Z" fill="#0E0E0E"/>
<path d="M16 0C7.16429 0 0 7.4031 0 16.5333C0 25.6636 7.16429 33.0667 16 33.0667C24.8357 33.0667 32 25.6636 32 16.5333C32 7.4031 24.8357 0 16 0ZM23.6893 12.4627C23.7 12.6362 23.7 12.817 23.7 12.9942C23.7 18.4118 19.7071 24.6524 12.4107 24.6524C10.1607 24.6524 8.075 23.977 6.31786 22.8145C6.63929 22.8514 6.94643 22.8662 7.275 22.8662C9.13214 22.8662 10.8393 22.2167 12.2 21.1169C10.4571 21.08 8.99286 19.899 8.49286 18.2752C9.10357 18.3675 9.65357 18.3675 10.2821 18.2014C9.38474 18.013 8.57812 17.5094 7.99934 16.7761C7.42056 16.0428 7.10531 15.1251 7.10714 14.1788V14.1271C7.63214 14.4335 8.25 14.6217 8.89643 14.6475C8.35301 14.2733 7.90735 13.7663 7.59897 13.1714C7.29059 12.5766 7.12901 11.9123 7.12857 11.2375C7.12857 10.4736 7.32143 9.77607 7.66786 9.17083C8.66394 10.4379 9.9069 11.4742 11.3159 12.2124C12.725 12.9506 14.2686 13.3741 15.8464 13.4555C15.2857 10.6692 17.3 8.41429 19.7214 8.41429C20.8643 8.41429 21.8929 8.90881 22.6179 9.70595C23.5143 9.5325 24.3714 9.18559 25.1357 8.72059C24.8393 9.66905 24.2179 10.4699 23.3929 10.9755C24.1929 10.8869 24.9643 10.6581 25.6786 10.337C25.1393 11.1563 24.4643 11.8833 23.6893 12.4627Z" fill="#0E0E0E"/>
<path d="M139 1C130.164 1 123 7.92548 123 16.4667C123 25.0079 130.164 31.9333 139 31.9333C147.836 31.9333 155 25.0079 155 16.4667C155 7.92548 147.836 1 139 1ZM144.964 22.8743C143.514 24.1655 141.536 24.925 139.175 24.925C135.757 24.925 132.8 23.0296 131.361 20.2677C130.768 19.125 130.429 17.8338 130.429 16.4667C130.429 15.0995 130.768 13.8083 131.361 12.6656C132.8 9.90024 135.757 8.00488 139.175 8.00488C141.532 8.00488 143.511 8.84381 145.029 10.2075L142.521 12.6345C141.614 11.7956 140.461 11.371 139.179 11.371C136.9 11.371 134.971 12.8589 134.282 14.8579C134.107 15.3654 134.007 15.9074 134.007 16.4667C134.007 17.026 134.107 17.568 134.282 18.0755C134.971 20.0744 136.9 21.5624 139.175 21.5624C140.354 21.5624 141.354 21.262 142.136 20.7545C143.064 20.1538 143.679 19.2596 143.882 18.1998H139.175V14.9269H147.414C147.518 15.4827 147.571 16.0593 147.571 16.6565C147.571 19.2355 146.618 21.4001 144.964 22.8743Z" fill="#0E0E0E"/>
</svg>
