<svg width="32" height="32" viewBox="0 0 32 32" fill="none" xmlns="http://www.w3.org/2000/svg">
<path d="M27.3333 19.3335V21.3335H25.3333V19.3335H27.3333ZM24.6666 12.6668H22.6666V12.0002C22.6666 10.9393 23.0881 9.92188 23.8382 9.17174C24.5884 8.42159 25.6058 8.00016 26.6666 8.00016C27.7275 8.00016 28.7449 8.42159 29.4951 9.17174C30.2452 9.92188 30.6666 10.9393 30.6666 12.0002C30.6666 13.2935 30 14.5068 28.9466 15.2135L28.5466 15.4668C27.7866 16.0002 27.3333 16.8135 27.3333 17.7335V18.0002H25.3333V17.7335C25.3333 16.1468 26.1333 14.6668 27.4533 13.8002L27.84 13.5468C28.36 13.2002 28.6666 12.6268 28.6666 12.0002C28.6666 11.4697 28.4559 10.961 28.0809 10.5859C27.7058 10.2109 27.1971 10.0002 26.6666 10.0002C26.1362 10.0002 25.6275 10.2109 25.2524 10.5859C24.8774 10.961 24.6666 11.4697 24.6666 12.0002V12.6668ZM12 17.3335C15.56 17.3335 22.6666 19.1202 22.6666 22.6668V26.6668H1.33331V22.6668C1.33331 19.1202 8.43998 17.3335 12 17.3335ZM12 5.3335C13.4145 5.3335 14.771 5.8954 15.7712 6.89559C16.7714 7.89579 17.3333 9.25234 17.3333 10.6668C17.3333 12.0813 16.7714 13.4379 15.7712 14.4381C14.771 15.4383 13.4145 16.0002 12 16.0002C10.5855 16.0002 9.22894 15.4383 8.22874 14.4381C7.22855 13.4379 6.66665 12.0813 6.66665 10.6668C6.66665 9.25234 7.22855 7.89579 8.22874 6.89559C9.22894 5.8954 10.5855 5.3335 12 5.3335ZM12 19.8668C8.03998 19.8668 3.86665 21.8135 3.86665 22.6668V24.1335H20.1333V22.6668C20.1333 21.8135 15.96 19.8668 12 19.8668ZM12 7.86683C11.2574 7.86683 10.5452 8.16183 10.0201 8.68693C9.49498 9.21203 9.19998 9.92422 9.19998 10.6668C9.19998 11.4094 9.49498 12.1216 10.0201 12.6467C10.5452 13.1718 11.2574 13.4668 12 13.4668C12.7426 13.4668 13.4548 13.1718 13.9799 12.6467C14.505 12.1216 14.8 11.4094 14.8 10.6668C14.8 9.92422 14.505 9.21203 13.9799 8.68693C13.4548 8.16183 12.7426 7.86683 12 7.86683Z" fill="#0E0E0E"/>
</svg>
