<svg width="30" height="28" viewBox="0 0 30 28" fill="none" xmlns="http://www.w3.org/2000/svg">
<path d="M20.8121 0.154324C19.6042 0.166749 18.3653 0.402624 17.1532 0.886449L17.0982 0.909799L17.0432 0.938149C16.2748 1.32945 15.5745 1.81895 14.9519 2.39905C11.6013 -0.498876 6.26704 -0.709201 2.61764 2.58082L2.58094 2.61417L2.54759 2.6492C-0.653809 5.9931 -0.578834 11.1429 1.34017 15.2119L1.35684 15.2436L1.37352 15.277C3.63362 19.4622 7.85392 23.0183 11.6999 25.9419L11.7099 25.9502L11.7182 25.9569C11.9656 26.1383 12.3911 26.5133 12.8822 26.8825C13.3734 27.2516 13.9282 27.6562 14.74 27.8113L14.9218 27.8463L15.1053 27.8313C15.9573 27.7578 16.2916 27.4433 16.8513 27.0909C17.4111 26.7385 18.0308 26.2912 18.6675 25.8018C19.9225 24.8369 21.2211 23.7248 22.0762 22.9317C22.0872 22.9214 22.1054 22.9067 22.1163 22.8967C22.118 22.8951 22.1195 22.8932 22.1213 22.8917C23.9226 21.3546 25.7068 19.5826 27.2194 17.4984C27.2199 17.4977 27.2206 17.4973 27.221 17.4967C27.2239 17.4929 27.2265 17.4889 27.2294 17.485C29.6283 14.2552 30.7919 9.90265 29.4041 5.6144L29.379 5.53767L29.3457 5.46595C27.7874 2.0971 24.4359 0.117099 20.8121 0.154324ZM20.8555 2.79262C23.4664 2.73257 25.7548 4.13057 26.8909 6.52157C27.9406 9.869 27.0332 13.2796 25.0781 15.9057L25.0731 15.9124L25.0681 15.919C23.7061 17.7985 22.0566 19.4438 20.3469 20.8988L20.3252 20.9188L20.3035 20.9388C19.5336 21.6555 18.2304 22.7719 17.0398 23.6872C16.4445 24.1448 15.8738 24.5538 15.4305 24.8329C15.2638 24.9378 15.1053 25.0093 14.9752 25.0647C14.8385 24.99 14.665 24.8848 14.4849 24.7495C14.1224 24.4771 13.7364 24.1293 13.3159 23.8189C13.3093 23.8139 13.3024 23.8089 13.2959 23.8039C9.56352 20.965 5.63212 17.518 3.74164 14.0429C2.20687 10.764 2.27384 6.83957 4.44207 4.53367C7.39022 1.91237 11.7701 2.48225 13.9546 5.1724L15.0186 6.48155L16.0475 5.14572C16.6396 4.37765 17.3461 3.79047 18.2039 3.34462C19.1029 2.9934 19.9962 2.81237 20.8555 2.79262Z" fill="black"/>
</svg>
